# xmcd
#
# Track frame offsets:
#	150
#	14965
#	31755
#	49880
#	68588
#	83678
#	98713
#	115583
#	129423
#	144835
#	158770
#	175840
#	193403
#	208973
#	225790
#	238388
#	255165
#
# Disc length: 3620 seconds
#
# Revision: 1
# Processed by: cddbd v1.5.2PL0 Copyright (c) Steve Scherf et al.
# Submitted via: audiograbber 1.83.01
#
DISCID=dc0e2211
DTITLE=тситсамгс [1994] - лаяиы and лекима йама [lIVE]
DYEAR=1994
DGENRE=
TTITLE0=то лимояе тоу тситсамг - оявгстяа
TTITLE1=фглиа - йама
TTITLE2=циати ле нупмгсес пяыи - хамасгс вакйиас
TTITLE3=жтывеиа поу ле йоуяекиасес - лаяиы
TTITLE4=лес стгм поккг сйотоуяа лоу - циаммгс акенамдягс
TTITLE5=лиа йуяиайг се цмыяиса - памтекгс ватфгйуяиайос
TTITLE6=нежамтыла - йама
TTITLE7=тяекг поу хекеис ма ле стежамысеис - циаммгс акенамдягс
TTITLE8=ти сглеяа, ти ауяио, ти тыяа - лаяиы
TTITLE9=аи-мийока - хамасгс вакйиас
TTITLE10=мувтес лацийес (аяапиимес) - йама
TTITLE11=жытиа - ватфгйуяиайос
TTITLE12=о тяекос тсиццамос - лаяиы [ваяакалпооу басикеиадг, иыаммас цеыяцайопо
TTITLE12=укоу]
TTITLE13=выяисале ема деикимо - йама
TTITLE14=аяапийо коукоуди - йама
TTITLE15=йахе бяаду памта купглемг - ватфгйуяиайос
TTITLE16=та нема веяиа - лаяиы
EXTD=
EXTT0=
EXTT1=
EXTT2=
EXTT3=
EXTT4=
EXTT5=
EXTT6=
EXTT7=
EXTT8=
EXTT9=
EXTT10=
EXTT11=
EXTT12=
EXTT13=
EXTT14=
EXTT15=
EXTT16=
PLAYORDER=
